<mxfile host="app.diagrams.net" modified="2024-05-21T08:46:53.138Z" agent="Mozilla/5.0 (X11; Ubuntu; Linux x86_64; rv:126.0) Gecko/20100101 Firefox/126.0" etag="ssYiZcf8EfN274VrMf0t" version="24.4.0" type="device">
  <diagram name="Page-1" id="OrUoRu9kMx7ikcfzCLrX">
    <mxGraphModel dx="1362" dy="736" grid="1" gridSize="10" guides="1" tooltips="1" connect="1" arrows="1" fold="1" page="1" pageScale="1" pageWidth="850" pageHeight="1100" math="0" shadow="0">
      <root>
        <mxCell id="0" />
        <mxCell id="1" parent="0" />
        <mxCell id="cnrpu68FFSukZOdKjzBn-11" style="edgeStyle=orthogonalEdgeStyle;rounded=0;orthogonalLoop=1;jettySize=auto;html=1;entryX=0;entryY=0.5;entryDx=0;entryDy=0;" parent="1" source="cnrpu68FFSukZOdKjzBn-1" target="cnrpu68FFSukZOdKjzBn-5" edge="1">
          <mxGeometry relative="1" as="geometry" />
        </mxCell>
        <mxCell id="cnrpu68FFSukZOdKjzBn-1" value="Zilla" style="rounded=0;whiteSpace=wrap;html=1;fillColor=#d5e8d4;strokeColor=#82b366;" parent="1" vertex="1">
          <mxGeometry x="120" y="240" width="120" height="320" as="geometry" />
        </mxCell>
        <mxCell id="cnrpu68FFSukZOdKjzBn-2" value="Kafka" style="rounded=0;whiteSpace=wrap;html=1;fillColor=#f5f5f5;fontColor=#333333;strokeColor=#666666;" parent="1" vertex="1">
          <mxGeometry x="320" y="240" width="240" height="320" as="geometry" />
        </mxCell>
        <mxCell id="cnrpu68FFSukZOdKjzBn-3" value="REST" style="rounded=0;whiteSpace=wrap;html=1;rotation=90;fillColor=#f8cecc;strokeColor=#b85450;" parent="1" vertex="1">
          <mxGeometry x="60" y="290" width="120" height="60" as="geometry" />
        </mxCell>
        <mxCell id="cnrpu68FFSukZOdKjzBn-4" value="MQTT" style="rounded=0;whiteSpace=wrap;html=1;rotation=90;fillColor=#f8cecc;strokeColor=#b85450;" parent="1" vertex="1">
          <mxGeometry x="60" y="450" width="120" height="60" as="geometry" />
        </mxCell>
        <mxCell id="cnrpu68FFSukZOdKjzBn-12" style="edgeStyle=orthogonalEdgeStyle;rounded=0;orthogonalLoop=1;jettySize=auto;html=1;entryX=0;entryY=0.25;entryDx=0;entryDy=0;" parent="1" source="cnrpu68FFSukZOdKjzBn-5" target="cnrpu68FFSukZOdKjzBn-7" edge="1">
          <mxGeometry relative="1" as="geometry" />
        </mxCell>
        <mxCell id="cnrpu68FFSukZOdKjzBn-5" value="mndwrk-zilla-request" style="shape=process;whiteSpace=wrap;html=1;backgroundOutline=1;fillColor=#bac8d3;strokeColor=#23445d;" parent="1" vertex="1">
          <mxGeometry x="340" y="270" width="200" height="60" as="geometry" />
        </mxCell>
        <mxCell id="cnrpu68FFSukZOdKjzBn-14" style="edgeStyle=orthogonalEdgeStyle;rounded=0;orthogonalLoop=1;jettySize=auto;html=1;entryX=0.5;entryY=0;entryDx=0;entryDy=0;" parent="1" source="cnrpu68FFSukZOdKjzBn-6" target="cnrpu68FFSukZOdKjzBn-9" edge="1">
          <mxGeometry relative="1" as="geometry" />
        </mxCell>
        <mxCell id="cnrpu68FFSukZOdKjzBn-16" style="edgeStyle=orthogonalEdgeStyle;rounded=0;orthogonalLoop=1;jettySize=auto;html=1;entryX=1;entryY=0.5;entryDx=0;entryDy=0;" parent="1" source="cnrpu68FFSukZOdKjzBn-6" target="cnrpu68FFSukZOdKjzBn-1" edge="1">
          <mxGeometry relative="1" as="geometry" />
        </mxCell>
        <mxCell id="cnrpu68FFSukZOdKjzBn-6" value="mndwrk-zilla-response" style="shape=process;whiteSpace=wrap;html=1;backgroundOutline=1;fillColor=#bac8d3;strokeColor=#23445d;" parent="1" vertex="1">
          <mxGeometry x="340" y="470" width="200" height="60" as="geometry" />
        </mxCell>
        <mxCell id="cnrpu68FFSukZOdKjzBn-13" style="edgeStyle=orthogonalEdgeStyle;rounded=0;orthogonalLoop=1;jettySize=auto;html=1;entryX=1;entryY=0.5;entryDx=0;entryDy=0;exitX=0;exitY=0.75;exitDx=0;exitDy=0;" parent="1" source="cnrpu68FFSukZOdKjzBn-7" target="cnrpu68FFSukZOdKjzBn-6" edge="1">
          <mxGeometry relative="1" as="geometry" />
        </mxCell>
        <mxCell id="cnrpu68FFSukZOdKjzBn-7" value="ksqldDB" style="rounded=0;whiteSpace=wrap;html=1;fillColor=#fff2cc;strokeColor=#d6b656;" parent="1" vertex="1">
          <mxGeometry x="650" y="240" width="120" height="320" as="geometry" />
        </mxCell>
        <mxCell id="cnrpu68FFSukZOdKjzBn-15" style="edgeStyle=orthogonalEdgeStyle;rounded=0;orthogonalLoop=1;jettySize=auto;html=1;entryX=0.5;entryY=0;entryDx=0;entryDy=0;entryPerimeter=0;" parent="1" source="cnrpu68FFSukZOdKjzBn-9" target="qS6iylU3Wuguu07LtFwR-1" edge="1">
          <mxGeometry relative="1" as="geometry">
            <mxPoint x="440" y="700" as="targetPoint" />
          </mxGeometry>
        </mxCell>
        <mxCell id="cnrpu68FFSukZOdKjzBn-9" value="kafka-connect" style="rounded=0;whiteSpace=wrap;html=1;fillColor=#ffe6cc;strokeColor=#d79b00;" parent="1" vertex="1">
          <mxGeometry x="320" y="600" width="240" height="60" as="geometry" />
        </mxCell>
        <mxCell id="cnrpu68FFSukZOdKjzBn-17" style="edgeStyle=orthogonalEdgeStyle;rounded=0;orthogonalLoop=1;jettySize=auto;html=1;" parent="1" source="cnrpu68FFSukZOdKjzBn-10" target="cnrpu68FFSukZOdKjzBn-2" edge="1">
          <mxGeometry relative="1" as="geometry" />
        </mxCell>
        <mxCell id="cnrpu68FFSukZOdKjzBn-10" value="schema-registry" style="rounded=0;whiteSpace=wrap;html=1;fillColor=#b0e3e6;strokeColor=#0e8088;" parent="1" vertex="1">
          <mxGeometry x="320" y="120" width="240" height="60" as="geometry" />
        </mxCell>
        <mxCell id="qS6iylU3Wuguu07LtFwR-1" value="mongoDB" style="shape=cylinder3;whiteSpace=wrap;html=1;boundedLbl=1;backgroundOutline=1;size=15;fillColor=#fad7ac;strokeColor=#b46504;" vertex="1" parent="1">
          <mxGeometry x="395" y="700" width="90" height="90" as="geometry" />
        </mxCell>
      </root>
    </mxGraphModel>
  </diagram>
</mxfile>
